<svg width="24" height="24" viewBox="0 0 24 24" fill="none" xmlns="http://www.w3.org/2000/svg">
<path d="M12 3C10.073 3 8.50124 4.54026 8.50124 6.42858V8.14283H6.75186C6.40043 8.14295 6.1268 8.46955 6.09584 8.72542L5.00247 20.2969C4.96829 20.653 5.29352 21.0015 5.65849 21H18.3415C18.7065 21.0021 19.0317 20.653 18.9975 20.2969L17.9042 8.72542C17.8738 8.4094 17.5721 8.14146 17.2481 8.14283H15.4988V6.42858C15.4988 4.54026 13.927 3 12 3ZM12 4.28572C13.2228 4.28572 14.1867 5.23031 14.1867 6.42858V8.14283H9.81327V6.42858C9.81327 5.23031 10.7772 4.28572 12 4.28572ZM7.35321 9.42854H16.6468L17.6172 19.7143H6.38284L7.35321 9.42854Z" fill="white"/>
</svg>
