<svg width="24" height="24" viewBox="0 0 24 24" fill="none" xmlns="http://www.w3.org/2000/svg">
<path d="M15.7957 13.3559L19.2155 13.3573C19.4233 13.3576 19.6227 13.2753 19.7699 13.1285C19.917 12.9817 19.9998 12.7825 20.0001 12.5747C20.0001 12.1413 19.2155 11.7907 19.2155 11.7907L12.0083 7.59241" stroke="#44403F" stroke-linecap="round" stroke-linejoin="round"/>
<path d="M15.6738 13.3561H15.7954" stroke="#44403F" stroke-linecap="round" stroke-linejoin="round"/>
<path d="M10.5462 4.14284C10.546 3.85308 10.6318 3.56977 10.7927 3.32878C10.9536 3.08779 11.1823 2.89994 11.45 2.78902C11.7177 2.6781 12.0123 2.6491 12.2965 2.70568C12.5806 2.76225 12.8417 2.90187 13.0465 3.10686C13.2512 3.31185 13.3906 3.57298 13.4469 3.85722C13.5033 4.14145 13.474 4.43601 13.3628 4.7036C13.2516 4.97118 13.0636 5.19978 12.8225 5.36044C12.5813 5.5211 12.2979 5.60661 12.0082 5.60613V7.59255L4.78607 11.78C4.78607 11.78 4 12.1292 4 12.564C4.00044 12.7721 4.08347 12.9716 4.23085 13.1186C4.37823 13.2656 4.57792 13.3481 4.78607 13.3479L8.23578 13.3506" stroke="#44403F" stroke-linecap="round" stroke-linejoin="round"/>
<path d="M13.8401 17.1522V20.5422C13.8403 20.6446 13.8202 20.7461 13.7811 20.8408C13.742 20.9355 13.6845 21.0216 13.6121 21.094C13.5396 21.1665 13.4536 21.2239 13.3589 21.2631C13.2642 21.3022 13.1627 21.3222 13.0602 21.3221H9.10922C8.90234 21.322 8.70394 21.2398 8.55759 21.0936C8.41124 20.9474 8.32889 20.7491 8.32861 20.5422V12.1006C8.3289 11.8938 8.41126 11.6955 8.55761 11.5493C8.70396 11.403 8.90235 11.3209 9.10922 11.3208H12.7966" stroke="#44403F" stroke-linecap="round" stroke-linejoin="round"/>
<path d="M15.6741 16.6971C15.6741 16.757 15.6622 16.8163 15.6393 16.8717C15.6163 16.927 15.5827 16.9772 15.5402 17.0195C15.4978 17.0618 15.4475 17.0953 15.3921 17.118C15.3367 17.1408 15.2774 17.1524 15.2175 17.1522H12.9138C12.8541 17.1522 12.795 17.1404 12.7399 17.1175C12.6848 17.0946 12.6347 17.0611 12.5925 17.0188C12.5504 16.9766 12.5169 16.9264 12.4942 16.8712C12.4715 16.816 12.4598 16.7568 12.46 16.6971V11.776C12.4599 11.6555 12.5077 11.5398 12.5927 11.4545C12.6778 11.3692 12.7933 11.3211 12.9138 11.3208H15.2175C15.3384 11.3206 15.4544 11.3685 15.54 11.4538C15.6256 11.5392 15.6738 11.6551 15.6741 11.776V16.6971Z" stroke="#44403F" stroke-linecap="round" stroke-linejoin="round"/>
</svg>
