<svg width="24" height="24" viewBox="0 0 24 24" fill="none" xmlns="http://www.w3.org/2000/svg">
<path d="M12 2C10.073 2 8.50124 3.54026 8.50124 5.42858V7.14283H6.75186C6.40043 7.14295 6.1268 7.46955 6.09584 7.72542L5.00247 19.2969C4.96829 19.653 5.29352 20.0015 5.65849 20H18.3415C18.7065 20.0021 19.0317 19.653 18.9975 19.2969L17.9042 7.72542C17.8738 7.4094 17.5721 7.14146 17.2481 7.14283H15.4988V5.42858C15.4988 3.54026 13.927 2 12 2ZM12 3.28572C13.2228 3.28572 14.1867 4.23031 14.1867 5.42858V7.14283H9.81327V5.42858C9.81327 4.23031 10.7772 3.28572 12 3.28572Z" fill="#282828"/>
</svg>
