<svg width="24" height="24" viewBox="0 0 24 24" fill="none" xmlns="http://www.w3.org/2000/svg">
<path d="M19.8586 8.14819C19.7051 7.55678 19.4163 7.00455 19.0126 6.53058C18.6089 6.0566 18.1002 5.67247 17.5224 5.40536C16.9864 5.1432 16.3927 5.00438 15.7894 5.00017C14.1442 5.00017 12.8007 5.956 12.0274 6.63132C11.2542 5.95081 9.88318 5.00017 8.2654 5.00017C7.63992 4.9944 7.02243 5.1335 6.46665 5.40536C5.89092 5.67367 5.38432 6.05833 4.98257 6.53223C4.58082 7.00614 4.29369 7.55775 4.14144 8.14819C3.96518 8.90558 3.95353 9.68904 4.10721 10.4508C4.26089 11.2126 4.57667 11.9368 5.03533 12.5793C6.8302 14.9873 9.02043 17.1076 11.5229 18.8597C11.6634 18.951 11.8297 18.9999 12 19C12.177 18.9994 12.3495 18.9467 12.4936 18.8494C14.9892 17.0989 17.1737 14.9823 18.9647 12.5793C19.4233 11.9368 19.7391 11.2126 19.8928 10.4508C20.0465 9.68904 20.0348 8.90558 19.8586 8.14819ZM18.0269 11.9767C16.3534 14.2267 14.3201 16.2159 12 17.8727C9.67881 16.2194 7.64362 14.2338 5.96761 11.9871C5.59682 11.4693 5.34139 10.8853 5.21692 10.2708C5.09246 9.65626 5.10158 9.02417 5.24372 8.41312C5.36235 7.96975 5.58254 7.55654 5.88866 7.20282C6.19479 6.8491 6.57935 6.56353 7.01505 6.36639C7.39938 6.17627 7.82634 6.07649 8.25992 6.07548C9.78447 6.07548 11.1116 7.2495 11.6052 7.75858C11.6577 7.81371 11.722 7.85753 11.7939 7.88711C11.8658 7.91668 11.9436 7.93131 12.0219 7.93001C12.1003 7.93131 12.1781 7.91668 12.25 7.88711C12.3218 7.85753 12.3862 7.81371 12.4387 7.75858C12.9378 7.23911 14.2594 6.07548 15.784 6.07548C16.2175 6.0767 16.6444 6.17646 17.0288 6.36639C17.4604 6.56593 17.8407 6.85256 18.1429 7.20614C18.4451 7.55973 18.662 7.97169 18.7782 8.41312C18.9177 9.02294 18.925 9.65325 18.7996 10.2658C18.6742 10.8784 18.4188 11.4604 18.0488 11.9767" fill="black"/>
</svg>
