<svg width="24" height="24" viewBox="0 0 24 24" fill="none" xmlns="http://www.w3.org/2000/svg">
<path d="M11.5669 11.1392C12.2729 11.1392 12.9631 10.9298 13.5501 10.5376C14.1371 10.1453 14.5947 9.58779 14.8648 8.9355C15.135 8.28321 15.2056 7.56546 15.0679 6.87301C14.9301 6.18056 14.59 5.54452 14.0908 5.04532C13.5915 4.54613 12.9554 4.2062 12.2629 4.06853C11.5705 3.93085 10.8527 4.00162 10.2005 4.27187C9.54824 4.54213 8.99078 4.99974 8.59861 5.58682C8.20644 6.17391 7.99718 6.86411 7.99728 7.57013C7.99841 8.51645 8.37487 9.42368 9.04407 10.0928C9.71327 10.7619 10.6206 11.1382 11.5669 11.1392ZM11.5669 5.06667C12.0619 5.06656 12.5459 5.21325 12.9575 5.48819C13.3692 5.76313 13.6901 6.15396 13.8796 6.61128C14.0692 7.06859 14.1188 7.57183 14.0224 8.05737C13.9259 8.54291 13.6876 8.98895 13.3376 9.33906C12.9877 9.68918 12.5417 9.92765 12.0562 10.0243C11.5707 10.121 11.0675 10.0716 10.6101 9.88221C10.1527 9.69287 9.76171 9.37214 9.4866 8.9606C9.21149 8.54905 9.06459 8.06516 9.06448 7.57013C9.06533 6.90662 9.32921 6.2705 9.79829 5.80123C10.2674 5.33195 10.9034 5.0678 11.5669 5.06667Z" fill="black"/>
<path d="M11.5669 12.0693C10.091 12.0708 8.67604 12.6578 7.63239 13.7013C6.58874 14.7449 6.00166 16.1598 5.99997 17.6357V19.4666C5.99997 19.6081 6.05616 19.7437 6.15618 19.8437C6.2562 19.9437 6.39185 19.9999 6.5333 19.9999H16.6005C16.7419 19.9999 16.8776 19.9437 16.9776 19.8437C17.0776 19.7437 17.1338 19.6081 17.1338 19.4666V17.6357C17.132 16.1598 16.5449 14.745 15.5013 13.7015C14.4576 12.658 13.0427 12.071 11.5669 12.0693ZM16.0672 18.9333H7.06664V17.6357C7.06664 16.4421 7.54077 15.2975 8.38473 14.4535C9.22869 13.6095 10.3734 13.1354 11.5669 13.1354C12.7604 13.1354 13.9051 13.6095 14.7491 14.4535C15.593 15.2975 16.0672 16.4421 16.0672 17.6357V18.9333Z" fill="black"/>
</svg>
