<svg width="24" height="24" viewBox="0 0 24 24" fill="none" xmlns="http://www.w3.org/2000/svg">
<path d="M14.4486 13.5762L20 19.1276L19.1276 20L13.5762 14.4486C11.2367 16.3321 7.84634 16.1537 5.72491 14.0322C3.42503 11.7323 3.42503 8.00496 5.72491 5.72491C8.00496 3.42503 11.7323 3.42503 14.0322 5.72491C16.1537 7.84634 16.3321 11.2367 14.4486 13.5762ZM6.59727 6.57745C4.77323 8.40149 4.77323 11.3556 6.59727 13.1599C8.40149 14.9839 11.3556 14.9839 13.1599 13.1599C14.9839 11.3556 14.9839 8.40149 13.1599 6.57745C11.3556 4.77323 8.40149 4.77323 6.59727 6.57745Z" fill="black"/>
</svg>
