<svg width="24" height="24" viewBox="0 0 24 24" fill="none" xmlns="http://www.w3.org/2000/svg">
<path d="M12.0267 4C15.3333 4 18 6.59319 18 9.86062C18 13.1799 15.2267 18.2107 12.2933 19.9222C12.08 20.0259 11.8667 20.0259 11.7067 19.9222C8.77333 18.0032 6 13.2836 6 9.86062C6 6.59319 8.66667 4 12.0267 4ZM12.0267 5.03728C9.30667 5.03728 7.06667 7.21556 7.06667 9.86062C7.06667 12.9206 9.52 17.0697 12.0267 18.8849C14.48 17.1734 16.9333 12.765 16.9333 9.86062C16.9333 7.21556 14.7467 5.03728 12.0267 5.03728Z" fill="black"/>
<path d="M12.0264 7.57812C13.3064 7.57812 14.373 8.56354 14.373 9.86013C14.373 11.1049 13.3064 12.1421 12.0264 12.1421C10.693 12.1421 9.67969 11.1049 9.67969 9.86013C9.67969 8.56354 10.693 7.57812 12.0264 7.57812ZM12.0264 8.6154C11.2797 8.6154 10.7464 9.13404 10.7464 9.86013C10.7464 10.5344 11.2797 11.1049 12.0264 11.1049C12.7197 11.1049 13.3064 10.5344 13.3064 9.86013C13.3064 9.13404 12.7197 8.6154 12.0264 8.6154Z" fill="black"/>
</svg>
